<svg version="1.2" xmlns="http://www.w3.org/2000/svg" viewBox="0 0 100 100" width="100" height="100">
	<title>New Project</title>
	<style>
		.s0 { fill: #ffffff;stroke: #000000;stroke-miterlimit:10 } 
	</style>
	<g id="Layer 1">
		<path id="&lt;Compound Path&gt;" class="s0" d="m74.4 28.4c0-1.1-1-2.1-2.2-2.1h-11.8l-8.4-8.4c-0.8-0.8-2.2-0.8-3 0l-8.4 8.4h-11.8c-1.2 0-2.2 1-2.2 2.1v11.9l-8.3 8.4c-0.9 0.8-0.9 2.1 0 2.9l8.3 8.4v11.9c0 1.1 1 2.1 2.2 2.1h11.8l8.4 8.4c0.8 0.8 2.2 0.8 3 0l8.4-8.4h11.8c1.2 0 2.2-1 2.2-2.1v-11.9l8.4-8.4c0.8-0.8 0.8-2.1 0-2.9l-8.4-8.4zm3.9 21.7l-7.6 7.6c-0.3 0.3-0.6 1-0.6 1.5v10.7h-10.5c-0.5 0-1 0.1-1.5 0.6l-7.6 7.6-7.6-7.6c-0.3-0.3-1-0.6-1.4-0.6h-10.7v-10.7c0-0.5-0.2-1-0.7-1.5l-7.6-7.6 7.6-7.6c0.3-0.3 0.7-0.9 0.7-1.4v-10.7h10.7c0.4 0 0.9-0.2 1.4-0.7l7.6-7.6 7.6 7.6c0.3 0.3 1 0.7 1.5 0.7h10.6v10.7c0 0.5 0.2 0.9 0.7 1.4z"/>
	</g>
</svg>